<svg xmlns="http://www.w3.org/2000/svg" viewBox="0 0 1200 420" width="1200" height="420">
<defs>
<marker id="arrow-gray" markerWidth="10" markerHeight="7" refX="9" refY="3.5" orient="auto">
<polygon points="0 0, 10 3.5, 0 7" fill="#71717a"/>
</marker>
<marker id="arrow-green" markerWidth="10" markerHeight="7" refX="9" refY="3.5" orient="auto">
<polygon points="0 0, 10 3.5, 0 7" fill="#10a37f"/>
</marker>
<marker id="arrow-blue" markerWidth="10" markerHeight="7" refX="9" refY="3.5" orient="auto">
<polygon points="0 0, 10 3.5, 0 7" fill="#1d4ed8"/>
</marker>
<marker id="arrow-orange" markerWidth="10" markerHeight="7" refX="9" refY="3.5" orient="auto">
<polygon points="0 0, 10 3.5, 0 7" fill="#f97316"/>
</marker>
</defs>
<style>
text { font-family: -apple-system, BlinkMacSystemFont, 'Segoe UI', Roboto, Helvetica, 'PingFang SC', 'Microsoft YaHei', 'Microsoft JhengHei', 'SimHei', sans-serif; }
</style>
<rect width="1200" height="420" fill="#ffffff"/>
<text x="600.0" y="40" text-anchor="middle" fill="#0d0d0d" font-size="24" font-weight="650">
  <tspan x="600.0" dy="0">已有项目接入流程图</tspan>
</text>
<text x="600.0" y="66" text-anchor="middle" fill="#6e6e80" font-size="13" font-weight="400">
  <tspan x="600.0" dy="0">Bennira 不能只能从 0 开始；已有仓库先观察、建记忆、再行动</tspan>
</text>
<rect x="85" y="155" width="120" height="74" rx="8" ry="8" fill="#ffffff" stroke="#e5e5e5" stroke-width="1.5"/>
<rect x="85" y="155" width="4" height="74" rx="2" ry="2" fill="#1d4ed8"/>
<text x="145.0" y="184.0" text-anchor="middle" fill="#0d0d0d" font-size="15" font-weight="650">
  <tspan x="145.0" dy="0">观察项目</tspan>
</text>
<text x="145.0" y="206.0" text-anchor="middle" fill="#6e6e80" font-size="12" font-weight="400">
  <tspan x="145.0" dy="0">文件树 / Git</tspan>
</text>
<line x1="205" y1="192" x2="245" y2="192" stroke="#10a37f" stroke-width="1.6" marker-end="url(#arrow-green)"/>
<rect x="245" y="155" width="120" height="74" rx="8" ry="8" fill="#ffffff" stroke="#e5e5e5" stroke-width="1.5"/>
<rect x="245" y="155" width="4" height="74" rx="2" ry="2" fill="#1d4ed8"/>
<text x="305.0" y="184.0" text-anchor="middle" fill="#0d0d0d" font-size="15" font-weight="650">
  <tspan x="305.0" dy="0">建立记忆</tspan>
</text>
<text x="305.0" y="206.0" text-anchor="middle" fill="#6e6e80" font-size="12" font-weight="400">
  <tspan x="305.0" dy="0">README / docs</tspan>
</text>
<line x1="365" y1="192" x2="405" y2="192" stroke="#10a37f" stroke-width="1.6" marker-end="url(#arrow-green)"/>
<rect x="405" y="155" width="120" height="74" rx="8" ry="8" fill="#ffffff" stroke="#e5e5e5" stroke-width="1.5"/>
<rect x="405" y="155" width="4" height="74" rx="2" ry="2" fill="#1d4ed8"/>
<text x="465.0" y="184.0" text-anchor="middle" fill="#0d0d0d" font-size="15" font-weight="650">
  <tspan x="465.0" dy="0">状态摘要</tspan>
</text>
<text x="465.0" y="206.0" text-anchor="middle" fill="#6e6e80" font-size="12" font-weight="400">
  <tspan x="465.0" dy="0">当前阶段</tspan>
</text>
<line x1="525" y1="192" x2="565" y2="192" stroke="#10a37f" stroke-width="1.6" marker-end="url(#arrow-green)"/>
<rect x="565" y="155" width="120" height="74" rx="8" ry="8" fill="#ffffff" stroke="#e5e5e5" stroke-width="1.5"/>
<rect x="565" y="155" width="4" height="74" rx="2" ry="2" fill="#10a37f"/>
<text x="625.0" y="184.0" text-anchor="middle" fill="#0d0d0d" font-size="15" font-weight="650">
  <tspan x="625.0" dy="0">明确下一步</tspan>
</text>
<text x="625.0" y="206.0" text-anchor="middle" fill="#6e6e80" font-size="12" font-weight="400">
  <tspan x="625.0" dy="0">计划与风险</tspan>
</text>
<line x1="685" y1="192" x2="725" y2="192" stroke="#f97316" stroke-width="1.6" marker-end="url(#arrow-orange)"/>
<rect x="725" y="155" width="120" height="74" rx="8" ry="8" fill="#ffffff" stroke="#e5e5e5" stroke-width="1.5"/>
<rect x="725" y="155" width="4" height="74" rx="2" ry="2" fill="#f97316"/>
<text x="785.0" y="184.0" text-anchor="middle" fill="#0d0d0d" font-size="15" font-weight="650">
  <tspan x="785.0" dy="0">小步修改</tspan>
</text>
<text x="785.0" y="206.0" text-anchor="middle" fill="#6e6e80" font-size="12" font-weight="400">
  <tspan x="785.0" dy="0">MVP 后启用</tspan>
</text>
<line x1="845" y1="192" x2="885" y2="192" stroke="#f97316" stroke-width="1.6" marker-end="url(#arrow-orange)"/>
<rect x="885" y="155" width="120" height="74" rx="8" ry="8" fill="#ffffff" stroke="#e5e5e5" stroke-width="1.5"/>
<rect x="885" y="155" width="4" height="74" rx="2" ry="2" fill="#f97316"/>
<text x="945.0" y="184.0" text-anchor="middle" fill="#0d0d0d" font-size="15" font-weight="650">
  <tspan x="945.0" dy="0">验证结果</tspan>
</text>
<text x="945.0" y="206.0" text-anchor="middle" fill="#6e6e80" font-size="12" font-weight="400">
  <tspan x="945.0" dy="0">测试 / diff</tspan>
</text>
<line x1="1005" y1="192" x2="1045" y2="192" stroke="#f97316" stroke-width="1.6" marker-end="url(#arrow-orange)"/>
<rect x="1045" y="155" width="120" height="74" rx="8" ry="8" fill="#ffffff" stroke="#e5e5e5" stroke-width="1.5"/>
<rect x="1045" y="155" width="4" height="74" rx="2" ry="2" fill="#f97316"/>
<text x="1105.0" y="184.0" text-anchor="middle" fill="#0d0d0d" font-size="15" font-weight="650">
  <tspan x="1105.0" dy="0">记录交接</tspan>
</text>
<text x="1105.0" y="206.0" text-anchor="middle" fill="#6e6e80" font-size="12" font-weight="400">
  <tspan x="1105.0" dy="0">events / handoff</tspan>
</text>
<path d="M 1105,229 L 1105,310 L 465,310 L 465,229" fill="none" stroke="#1d4ed8" stroke-width="1.6" marker-end="url(#arrow-blue)"/>
<text x="465" y="302" text-anchor="middle" fill="#6e6e80" font-size="11" font-weight="400">
  <tspan x="465" dy="0">恢复状态</tspan>
</text>
<line x1="370" y1="365" x2="404" y2="365" stroke="#10a37f" stroke-width="1.8" marker-end="url(#arrow-green)"/>
<text x="416" y="369" text-anchor="start" fill="#6e6e80" font-size="11" font-weight="400">
  <tspan x="416" dy="0">主路径</tspan>
</text>
<line x1="486" y1="365" x2="520" y2="365" stroke="#1d4ed8" stroke-width="1.8" marker-end="url(#arrow-blue)"/>
<text x="532" y="369" text-anchor="start" fill="#6e6e80" font-size="11" font-weight="400">
  <tspan x="532" dy="0">读取/上下文</tspan>
</text>
<line x1="602" y1="365" x2="636" y2="365" stroke="#f97316" stroke-width="1.8" marker-end="url(#arrow-orange)"/>
<text x="648" y="369" text-anchor="start" fill="#6e6e80" font-size="11" font-weight="400">
  <tspan x="648" dy="0">写入/行动</tspan>
</text>
<line x1="718" y1="365" x2="752" y2="365" stroke="#71717a" stroke-width="1.8" marker-end="url(#arrow-gray)"/>
<text x="764" y="369" text-anchor="start" fill="#6e6e80" font-size="11" font-weight="400">
  <tspan x="764" dy="0">未来/辅助</tspan>
</text>
</svg>
