<svg xmlns="http://www.w3.org/2000/svg" viewBox="0 0 1200 760" width="1200" height="760">
<defs>
<marker id="arrow-gray" markerWidth="10" markerHeight="7" refX="9" refY="3.5" orient="auto">
<polygon points="0 0, 10 3.5, 0 7" fill="#71717a"/>
</marker>
<marker id="arrow-green" markerWidth="10" markerHeight="7" refX="9" refY="3.5" orient="auto">
<polygon points="0 0, 10 3.5, 0 7" fill="#10a37f"/>
</marker>
<marker id="arrow-blue" markerWidth="10" markerHeight="7" refX="9" refY="3.5" orient="auto">
<polygon points="0 0, 10 3.5, 0 7" fill="#1d4ed8"/>
</marker>
<marker id="arrow-orange" markerWidth="10" markerHeight="7" refX="9" refY="3.5" orient="auto">
<polygon points="0 0, 10 3.5, 0 7" fill="#f97316"/>
</marker>
</defs>
<style>
text { font-family: -apple-system, BlinkMacSystemFont, 'Segoe UI', Roboto, Helvetica, 'PingFang SC', 'Microsoft YaHei', 'Microsoft JhengHei', 'SimHei', sans-serif; }
</style>
<rect width="1200" height="760" fill="#ffffff"/>
<text x="600.0" y="40" text-anchor="middle" fill="#0d0d0d" font-size="24" font-weight="650">
  <tspan x="600.0" dy="0">Bennira 产品架构图</tspan>
</text>
<text x="600.0" y="66" text-anchor="middle" fill="#6e6e80" font-size="13" font-weight="400">
  <tspan x="600.0" dy="0">项目养成型代码 Agent：入口、工作台、内核、可信底座</tspan>
</text>
<rect x="70" y="95" width="1060" height="100" rx="10" ry="10" fill="none" stroke="#e5e5e5" stroke-width="1" stroke-dasharray="5,4"/>
<text x="82" y="113" text-anchor="start" fill="#6e6e80" font-size="12" font-weight="600">
  <tspan x="82" dy="0">产品入口</tspan>
</text>
<rect x="70" y="225" width="1060" height="130" rx="10" ry="10" fill="none" stroke="#e5e5e5" stroke-width="1" stroke-dasharray="5,4"/>
<text x="82" y="243" text-anchor="start" fill="#6e6e80" font-size="12" font-weight="600">
  <tspan x="82" dy="0">项目工作台</tspan>
</text>
<rect x="70" y="385" width="1060" height="130" rx="10" ry="10" fill="none" stroke="#e5e5e5" stroke-width="1" stroke-dasharray="5,4"/>
<text x="82" y="403" text-anchor="start" fill="#6e6e80" font-size="12" font-weight="600">
  <tspan x="82" dy="0">Agent 内核能力</tspan>
</text>
<rect x="70" y="545" width="1060" height="120" rx="10" ry="10" fill="none" stroke="#e5e5e5" stroke-width="1" stroke-dasharray="5,4"/>
<text x="82" y="563" text-anchor="start" fill="#6e6e80" font-size="12" font-weight="600">
  <tspan x="82" dy="0">可信底座</tspan>
</text>
<rect x="120" y="125" width="190" height="58" rx="8" ry="8" fill="#ffffff" stroke="#e5e5e5" stroke-width="1.5"/>
<rect x="120" y="125" width="4" height="58" rx="2" ry="2" fill="#10a37f"/>
<text x="215.0" y="146.0" text-anchor="middle" fill="#0d0d0d" font-size="15" font-weight="650">
  <tspan x="215.0" dy="0">CLI</tspan>
</text>
<text x="215.0" y="168.0" text-anchor="middle" fill="#6e6e80" font-size="12" font-weight="400">
  <tspan x="215.0" dy="0">小偷 Alpha</tspan>
</text>
<rect x="380" y="125" width="220" height="58" rx="8" ry="8" fill="#ffffff" stroke="#e5e5e5" stroke-width="1.5"/>
<rect x="380" y="125" width="4" height="58" rx="2" ry="2" fill="#71717a"/>
<text x="490.0" y="146.0" text-anchor="middle" fill="#0d0d0d" font-size="15" font-weight="650">
  <tspan x="490.0" dy="0">未来入口</tspan>
</text>
<text x="490.0" y="168.0" text-anchor="middle" fill="#6e6e80" font-size="12" font-weight="400">
  <tspan x="490.0" dy="0">TUI / Desktop / IDE</tspan>
</text>
<rect x="120" y="260" width="180" height="62" rx="8" ry="8" fill="#ffffff" stroke="#e5e5e5" stroke-width="1.5"/>
<rect x="120" y="260" width="4" height="62" rx="2" ry="2" fill="#1d4ed8"/>
<text x="210.0" y="283.0" text-anchor="middle" fill="#0d0d0d" font-size="15" font-weight="650">
  <tspan x="210.0" dy="0">项目观察</tspan>
</text>
<text x="210.0" y="305.0" text-anchor="middle" fill="#6e6e80" font-size="12" font-weight="400">
  <tspan x="210.0" dy="0">文件树 / docs</tspan>
</text>
<rect x="365" y="260" width="180" height="62" rx="8" ry="8" fill="#ffffff" stroke="#e5e5e5" stroke-width="1.5"/>
<rect x="365" y="260" width="4" height="62" rx="2" ry="2" fill="#10a37f"/>
<text x="455.0" y="283.0" text-anchor="middle" fill="#0d0d0d" font-size="15" font-weight="650">
  <tspan x="455.0" dy="0">需求澄清</tspan>
</text>
<text x="455.0" y="305.0" text-anchor="middle" fill="#6e6e80" font-size="12" font-weight="400">
  <tspan x="455.0" dy="0">模糊想法 -&gt; 目标</tspan>
</text>
<rect x="610" y="260" width="180" height="62" rx="8" ry="8" fill="#ffffff" stroke="#e5e5e5" stroke-width="1.5"/>
<rect x="610" y="260" width="4" height="62" rx="2" ry="2" fill="#10a37f"/>
<text x="700.0" y="283.0" text-anchor="middle" fill="#0d0d0d" font-size="15" font-weight="650">
  <tspan x="700.0" dy="0">计划生成</tspan>
</text>
<text x="700.0" y="305.0" text-anchor="middle" fill="#6e6e80" font-size="12" font-weight="400">
  <tspan x="700.0" dy="0">MVP / 下一步</tspan>
</text>
<rect x="855" y="260" width="180" height="62" rx="8" ry="8" fill="#ffffff" stroke="#e5e5e5" stroke-width="1.5"/>
<rect x="855" y="260" width="4" height="62" rx="2" ry="2" fill="#1d4ed8"/>
<text x="945.0" y="283.0" text-anchor="middle" fill="#0d0d0d" font-size="15" font-weight="650">
  <tspan x="945.0" dy="0">恢复继续</tspan>
</text>
<text x="945.0" y="305.0" text-anchor="middle" fill="#6e6e80" font-size="12" font-weight="400">
  <tspan x="945.0" dy="0">状态摘要 / 记录</tspan>
</text>
<rect x="110" y="420" width="180" height="62" rx="8" ry="8" fill="#ffffff" stroke="#e5e5e5" stroke-width="1.5"/>
<rect x="110" y="420" width="4" height="62" rx="2" ry="2" fill="#10a37f"/>
<text x="200.0" y="443.0" text-anchor="middle" fill="#0d0d0d" font-size="15" font-weight="650">
  <tspan x="200.0" dy="0">Session</tspan>
</text>
<text x="200.0" y="465.0" text-anchor="middle" fill="#6e6e80" font-size="12" font-weight="400">
  <tspan x="200.0" dy="0">任务生命周期</tspan>
</text>
<rect x="345" y="420" width="190" height="62" rx="8" ry="8" fill="#ffffff" stroke="#e5e5e5" stroke-width="1.5"/>
<rect x="345" y="420" width="4" height="62" rx="2" ry="2" fill="#1d4ed8"/>
<text x="440.0" y="443.0" text-anchor="middle" fill="#0d0d0d" font-size="15" font-weight="650">
  <tspan x="440.0" dy="0">Context Engine</tspan>
</text>
<text x="440.0" y="465.0" text-anchor="middle" fill="#6e6e80" font-size="12" font-weight="400">
  <tspan x="440.0" dy="0">Provider / 摘要</tspan>
</text>
<rect x="590" y="420" width="190" height="62" rx="8" ry="8" fill="#ffffff" stroke="#e5e5e5" stroke-width="1.5"/>
<rect x="590" y="420" width="4" height="62" rx="2" ry="2" fill="#10a37f"/>
<text x="685.0" y="443.0" text-anchor="middle" fill="#0d0d0d" font-size="15" font-weight="650">
  <tspan x="685.0" dy="0">Agent Runtime</tspan>
</text>
<text x="685.0" y="465.0" text-anchor="middle" fill="#6e6e80" font-size="12" font-weight="400">
  <tspan x="685.0" dy="0">工具 / 权限 / 编排</tspan>
</text>
<rect x="835" y="420" width="190" height="62" rx="8" ry="8" fill="#ffffff" stroke="#e5e5e5" stroke-width="1.5"/>
<rect x="835" y="420" width="4" height="62" rx="2" ry="2" fill="#71717a"/>
<text x="930.0" y="443.0" text-anchor="middle" fill="#0d0d0d" font-size="15" font-weight="650">
  <tspan x="930.0" dy="0">Model Adapter</tspan>
</text>
<text x="930.0" y="465.0" text-anchor="middle" fill="#6e6e80" font-size="12" font-weight="400">
  <tspan x="930.0" dy="0">多模型适配</tspan>
</text>
<ellipse cx="190.0" cy="589" rx="80.0" ry="14" fill="#ffffff" stroke="#e5e5e5" stroke-width="1.5"/>
<path d="M 110,589 L 110,631 Q 190.0,655 270,631 L 270,589" fill="#ffffff" stroke="#e5e5e5" stroke-width="1.5"/>
<ellipse cx="190.0" cy="631" rx="80.0" ry="14" fill="none" stroke="#e5e5e5" stroke-width="1.5"/>
<rect x="110" y="587" width="4" height="44" fill="#f97316"/>
<text x="190.0" y="604.0" text-anchor="middle" fill="#0d0d0d" font-size="14" font-weight="650">
  <tspan x="190.0" dy="0">Event Log</tspan>
</text>
<text x="190.0" y="625.0" text-anchor="middle" fill="#6e6e80" font-size="11" font-weight="400">
  <tspan x="190.0" dy="0">JSONL</tspan>
</text>
<ellipse cx="400.0" cy="589" rx="80.0" ry="14" fill="#ffffff" stroke="#e5e5e5" stroke-width="1.5"/>
<path d="M 320,589 L 320,631 Q 400.0,655 480,631 L 480,589" fill="#ffffff" stroke="#e5e5e5" stroke-width="1.5"/>
<ellipse cx="400.0" cy="631" rx="80.0" ry="14" fill="none" stroke="#e5e5e5" stroke-width="1.5"/>
<rect x="320" y="587" width="4" height="44" fill="#f97316"/>
<text x="400.0" y="604.0" text-anchor="middle" fill="#0d0d0d" font-size="14" font-weight="650">
  <tspan x="400.0" dy="0">State</tspan>
</text>
<text x="400.0" y="625.0" text-anchor="middle" fill="#6e6e80" font-size="11" font-weight="400">
  <tspan x="400.0" dy="0">state.json</tspan>
</text>
<rect x="530" y="575" width="170" height="70" rx="8" ry="8" fill="#ffffff" stroke="#e5e5e5" stroke-width="1.5"/>
<rect x="530" y="575" width="4" height="70" rx="2" ry="2" fill="#f97316"/>
<text x="615.0" y="602.0" text-anchor="middle" fill="#0d0d0d" font-size="15" font-weight="650">
  <tspan x="615.0" dy="0">Handoff</tspan>
</text>
<text x="615.0" y="624.0" text-anchor="middle" fill="#6e6e80" font-size="12" font-weight="400">
  <tspan x="615.0" dy="0">跨工具交接</tspan>
</text>
<rect x="750" y="575" width="170" height="70" rx="8" ry="8" fill="#ffffff" stroke="#e5e5e5" stroke-width="1.5"/>
<rect x="750" y="575" width="4" height="70" rx="2" ry="2" fill="#1d4ed8"/>
<text x="835.0" y="602.0" text-anchor="middle" fill="#0d0d0d" font-size="15" font-weight="650">
  <tspan x="835.0" dy="0">Project Memory</tspan>
</text>
<text x="835.0" y="624.0" text-anchor="middle" fill="#6e6e80" font-size="12" font-weight="400">
  <tspan x="835.0" dy="0">README / docs</tspan>
</text>
<rect x="960" y="575" width="130" height="70" rx="8" ry="8" fill="#ffffff" stroke="#e5e5e5" stroke-width="1.5"/>
<rect x="960" y="575" width="4" height="70" rx="2" ry="2" fill="#71717a"/>
<text x="1025.0" y="602.0" text-anchor="middle" fill="#0d0d0d" font-size="15" font-weight="650">
  <tspan x="1025.0" dy="0">Tech Graph</tspan>
</text>
<text x="1025.0" y="624.0" text-anchor="middle" fill="#6e6e80" font-size="12" font-weight="400">
  <tspan x="1025.0" dy="0">图谱规范</tspan>
</text>
<line x1="310" y1="154" x2="380" y2="154" stroke="#71717a" stroke-width="1.6" stroke-dasharray="5,4" marker-end="url(#arrow-gray)"/>
<text x="345.0" y="146.0" text-anchor="middle" fill="#6e6e80" font-size="11" font-weight="400">
  <tspan x="345.0" dy="0">扩展入口</tspan>
</text>
<line x1="215" y1="183" x2="210" y2="260" stroke="#10a37f" stroke-width="1.6" marker-end="url(#arrow-green)"/>
<line x1="600" y1="183" x2="210" y2="260" stroke="#71717a" stroke-width="1.6" stroke-dasharray="5,4" marker-end="url(#arrow-gray)"/>
<text x="405.0" y="213.5" text-anchor="middle" fill="#6e6e80" font-size="11" font-weight="400">
  <tspan x="405.0" dy="0">复用内核</tspan>
</text>
<line x1="300" y1="291" x2="365" y2="291" stroke="#10a37f" stroke-width="1.6" marker-end="url(#arrow-green)"/>
<line x1="545" y1="291" x2="610" y2="291" stroke="#10a37f" stroke-width="1.6" marker-end="url(#arrow-green)"/>
<line x1="790" y1="291" x2="855" y2="291" stroke="#10a37f" stroke-width="1.6" marker-end="url(#arrow-green)"/>
<line x1="945" y1="322" x2="200" y2="420" stroke="#1d4ed8" stroke-width="1.6" marker-end="url(#arrow-blue)"/>
<text x="572.5" y="363.0" text-anchor="middle" fill="#6e6e80" font-size="11" font-weight="400">
  <tspan x="572.5" dy="0">恢复</tspan>
</text>
<line x1="290" y1="451" x2="345" y2="451" stroke="#10a37f" stroke-width="1.6" marker-end="url(#arrow-green)"/>
<line x1="535" y1="451" x2="590" y2="451" stroke="#1d4ed8" stroke-width="1.6" marker-end="url(#arrow-blue)"/>
<line x1="780" y1="451" x2="835" y2="451" stroke="#71717a" stroke-width="1.6" marker-end="url(#arrow-gray)"/>
<text x="807.5" y="443.0" text-anchor="middle" fill="#6e6e80" font-size="11" font-weight="400">
  <tspan x="807.5" dy="0">调用模型</tspan>
</text>
<path d="M 685,482 L 685,535 L 190,535 L 190,575" fill="none" stroke="#f97316" stroke-width="1.6" marker-end="url(#arrow-orange)"/>
<text x="190" y="527" text-anchor="middle" fill="#6e6e80" font-size="11" font-weight="400">
  <tspan x="190" dy="0">写入事件</tspan>
</text>
<path d="M 685,482 L 685,535 L 400,535 L 400,575" fill="none" stroke="#f97316" stroke-width="1.6" marker-end="url(#arrow-orange)"/>
<text x="400" y="527" text-anchor="middle" fill="#6e6e80" font-size="11" font-weight="400">
  <tspan x="400" dy="0">更新状态</tspan>
</text>
<path d="M 685,482 L 685,535 L 615,535 L 615,575" fill="none" stroke="#f97316" stroke-width="1.6" marker-end="url(#arrow-orange)"/>
<text x="615" y="527" text-anchor="middle" fill="#6e6e80" font-size="11" font-weight="400">
  <tspan x="615" dy="0">生成交接</tspan>
</text>
<path d="M 440,482 L 440,525 L 835,525 L 835,575" fill="none" stroke="#1d4ed8" stroke-width="1.6" marker-end="url(#arrow-blue)"/>
<text x="835" y="517" text-anchor="middle" fill="#6e6e80" font-size="11" font-weight="400">
  <tspan x="835" dy="0">读取记忆</tspan>
</text>
<line x1="920" y1="610" x2="960" y2="610" stroke="#71717a" stroke-width="1.6" stroke-dasharray="5,4" marker-end="url(#arrow-gray)"/>
<text x="940.0" y="602.0" text-anchor="middle" fill="#6e6e80" font-size="11" font-weight="400">
  <tspan x="940.0" dy="0">规范</tspan>
</text>
<line x1="380" y1="710" x2="414" y2="710" stroke="#10a37f" stroke-width="1.8" marker-end="url(#arrow-green)"/>
<text x="426" y="714" text-anchor="start" fill="#6e6e80" font-size="11" font-weight="400">
  <tspan x="426" dy="0">主路径</tspan>
</text>
<line x1="496" y1="710" x2="530" y2="710" stroke="#1d4ed8" stroke-width="1.8" marker-end="url(#arrow-blue)"/>
<text x="542" y="714" text-anchor="start" fill="#6e6e80" font-size="11" font-weight="400">
  <tspan x="542" dy="0">读取/上下文</tspan>
</text>
<line x1="612" y1="710" x2="646" y2="710" stroke="#f97316" stroke-width="1.8" marker-end="url(#arrow-orange)"/>
<text x="658" y="714" text-anchor="start" fill="#6e6e80" font-size="11" font-weight="400">
  <tspan x="658" dy="0">写入/行动</tspan>
</text>
<line x1="728" y1="710" x2="762" y2="710" stroke="#71717a" stroke-width="1.8" marker-end="url(#arrow-gray)"/>
<text x="774" y="714" text-anchor="start" fill="#6e6e80" font-size="11" font-weight="400">
  <tspan x="774" dy="0">未来/辅助</tspan>
</text>
</svg>
